<?xml version="1.0" encoding="utf-8"?>
<!-- Generator: Adobe Illustrator 22.0.1, SVG Export Plug-In . SVG Version: 6.00 Build 0)  -->
<svg version="1.1"
	 id="svg30" inkscape:export-filename="C:\Users\Guy - Focus\Documents\Focus\Logo\OLSx\OLSxGearBox.png" inkscape:export-xdpi="338.62" inkscape:export-ydpi="338.62" inkscape:version="0.92.4 (5da689c313, 2019-01-14)" sodipodi:docname="OLSxGearBox.svg" xmlns:cc="http://creativecommons.org/ns#" xmlns:dc="http://purl.org/dc/elements/1.1/" xmlns:inkscape="http://www.inkscape.org/namespaces/inkscape" xmlns:rdf="http://www.w3.org/1999/02/22-rdf-syntax-ns#" xmlns:sodipodi="http://sodipodi.sourceforge.net/DTD/sodipodi-0.dtd" xmlns:svg="http://www.w3.org/2000/svg"
	 xmlns="http://www.w3.org/2000/svg" xmlns:xlink="http://www.w3.org/1999/xlink" x="0px" y="0px" viewBox="0 0 113.4 113.4"
	 style="enable-background:new 0 0 113.4 113.4;" xml:space="preserve">
<style type="text/css">
	.st0{fill:#f02429;}
	.st1{fill:#494C53;}
	.st2{enable-background:new    ;}
	.st3{fill:#4D4D4D;}
</style>
<sodipodi:namedview  bordercolor="#666666" borderopacity="1" gridtolerance="10" guidetolerance="10" id="namedview32" inkscape:current-layer="svg30" inkscape:cx="47.795186" inkscape:cy="55.729968" inkscape:pageopacity="0" inkscape:pageshadow="2" inkscape:window-height="970" inkscape:window-maximized="0" inkscape:window-width="2032" inkscape:window-x="2757" inkscape:window-y="253" inkscape:zoom="8" objecttolerance="10" pagecolor="#ffffff" showgrid="false">
	</sodipodi:namedview>
<g id="Calque_1">
	<path id="path4" inkscape:connector-curvature="0" sodipodi:nodetypes="cccccccccccccccccccccccc" class="st0" d="M60.6,73.1
		l12.3-7l0.1-3.9l-12.4,6.9V73.1z M60.6,65.9L73,59l0-2.3l-2.3-0.4l-10.1,5.6V65.9z M60.6,76.2v2.6l2.9-0.2l7.6-4.1l1.3,2.4
		l-1.1,0.8l1.5-0.3l0.2-7.9L60.6,76.2z M65.7,55.9l-5.1-0.4v3.2L65.7,55.9z"/>
	<path id="path6" class="st1" d="M63.8,40.6l6-5.7v-3.1h-1.2l-4.8,4.5L63.8,40.6z M63.8,47.8l6-5.7v-4.2l-6,5.6L63.8,47.8z
		 M69.8,49.3V45l-6,5.7V53h2L69.8,49.3z M65.5,31.8h-1.7v1.6L65.5,31.8z M68.9,53h0.9v-0.8L68.9,53z"/>
	<path id="path8" class="st0" d="M27.7,77.4L43,72.9v-2.8l-15.3,4.4V77.4z M27.7,72.6L43,68.1v-2.9l-15.3,4.5V72.6z M27.7,67.8
		L43,63.3v-2.9l-15.3,4.5V67.8z M27.7,82.2L43,77.8v-2.9l-15.3,4.4V82.2z M27.7,87L43,82.6v-2.9l-15.3,4.4V87z M27.7,91.8L43,87.4
		v-2.9L27.7,89V91.8z M32.4,92.4H43v-3.1L32.4,92.4z M27.7,48.5L43,44v-2.4h-0.3l-15,4.4V48.5z M34.6,42.1l-6.9,0.3v1.7L34.6,42.1z
		 M27.7,62.9L43,58.5v-2.9l-15.3,4.5L27.7,62.9z M27.7,53.3L43,48.9V46l-15.3,4.4L27.7,53.3z M27.7,58.1L43,53.7v-2.9l-15.3,4.4
		L27.7,58.1z"/>
	<path id="path10" class="st1" d="M44.4,49.4h5.2v36.3h-5.2V49.4z M50.7,10.6h11.8v75.2H50.7V10.6z M22.6,49.4h3.7v36.3h-3.7V49.4z"
		/>
	<path id="path12" class="st1" d="M19.1,61.7h3.7v11.8h-3.7V61.7z M43,20.3v-0.9l-2-0.2L43,20.3z M34,18.5l-3.7-0.3v2.3l12.7,7v-4
		L34,18.5z M43,30.7l-12.7-7v4l12.7,7V30.7z M30.3,30.9v4l7.1,3.9l5.6-0.5v-0.5L30.3,30.9z M30.3,38v1.4l2.1-0.2L30.3,38z
		 M29.8,39.4l-2.2-0.3V18.5l2.2-0.3V39.4z M45.8,10.6h3.7v36.3h-3.7V10.6z"/>
	<path id="path14" class="st1" d="M43,26.9h29.1v3.7H43V26.9z"/>
	<path id="path16" class="st0" d="M43,65.7h7.7v3.7H43V65.7z M5.9,65.7c-1,0-1.9,0.8-1.9,1.8h9c0.3,0,0.5,0.2,0.5,0.5
		s-0.2,0.5-0.5,0.5H4.3c0.3,0.6,0.9,0.9,1.6,0.9h12.6v-3.7C18.5,65.7,5.9,65.7,5.9,65.7z"/>
	<path id="path18" class="st1" d="M98,83.7H78.5c-4.2,0-7.7-3.4-7.7-7.7V28c0-4.2,3.4-7.7,7.7-7.7H98c4.2,0,7.7,3.4,7.7,7.7v48
		C105.6,80.3,102.2,83.7,98,83.7z M78.5,22.7c-2.9,0-5.3,2.4-5.3,5.3v48c0,2.9,2.4,5.3,5.3,5.3H98c2.9,0,5.3-2.4,5.3-5.3V28
		c0-2.9-2.4-5.3-5.3-5.3C98,22.7,78.5,22.7,78.5,22.7z"/>
	<path id="path20" class="st1" d="M87.1,27.8h-4.8c-2.2,0-3.9,1.8-3.9,3.9s1.8,3.9,3.9,3.9h0.9v7.9c-1.1,0.7-1.9,1.9-1.9,3.3
		l-0.1,9.3c-1.5,0.6-2.6,2-2.6,3.7v12.7c0,2.2,1.8,3.9,3.9,3.9s3.9-1.8,3.9-3.9v-9c1.5-0.6,2.5-2,2.5-3.6l0.1-9.6
		c1.2-0.7,1.9-1.9,1.9-3.4V31.7C91,29.5,89.3,27.8,87.1,27.8z M89.4,46.9c0,1.1-0.8,2.1-1.9,2.2l-0.1,10.7c0,1.2-1,2.2-2.2,2.2h-0.3
		v10.4c0,1.2-1,2.2-2.2,2.2s-2.2-1-2.2-2.2V59.8c0-1.2,1-2.2,2.2-2.2H83V46.9c0-1.1,0.8-2,1.9-2.2V33.9h-2.6c-1.2,0-2.2-1-2.2-2.2
		c0-1.2,1-2.2,2.2-2.2h4.8c1.2,0,2.2,1,2.2,2.2L89.4,46.9L89.4,46.9z"/>
	<path id="path22" inkscape:connector-curvature="0" sodipodi:nodetypes="ssssccsccsssssssccscss" class="st1" d="M82.6,73.6
		c-0.6,0-1.1-0.5-1.1-1.1V59.8c0-0.6,0.5-1.1,1.1-1.1H84l0.1-11.8c0-0.6,0.5-1.1,1.1-1.1H86v-13h-3.7c-0.6,0-1.1-0.5-1.1-1.1
		c0-0.6,0.5-1.1,1.1-1.1h4.8c0.6,0,1.1,0.5,1.1,1.1v15.2c0,0.6-0.5,1.1-1.1,1.1h-0.8l-0.1,11.8c0,0.6-0.5,1.1-1.1,1.1h-1.4v11.6
		C83.7,73.1,83.2,73.6,82.6,73.6z"/>
	<g class="st2">
		<path class="st3" d="M59,90.9l-0.3,1.8c-0.9-0.2-1.7-0.4-2.4-0.4s-1.4,0.1-1.9,0.4s-0.9,0.6-1.1,1S53,94.5,53,95
			c0,0.4,0.1,0.7,0.2,1s0.4,0.6,0.7,0.8S54.6,97,55,97c0.2,0,0.4,0,0.5,0s0.3-0.1,0.4-0.1s0.2-0.1,0.3-0.1l0.2-1.1H55l0.2-1.5h3.3
			L58,98.2c-0.3,0.1-0.6,0.2-0.9,0.3s-0.7,0.2-1,0.2s-0.8,0.1-1.2,0.1c-0.6,0-1.1-0.1-1.5-0.2s-0.9-0.4-1.3-0.7s-0.7-0.7-0.9-1.2
			s-0.3-1-0.3-1.6c0-0.4,0.1-0.9,0.2-1.4s0.4-1,0.7-1.5s0.9-0.9,1.7-1.3s1.7-0.5,2.9-0.5C57.2,90.5,58.1,90.6,59,90.9z"/>
	</g>
	<g class="st2">
		<path class="st3" d="M66.1,90.6L65.9,92h-3.3l-0.3,1.8h2.9L65,95.3h-2.9l-0.3,2h4l-0.2,1.5h-6.1l1.2-8.1H66.1z"/>
	</g>
	<g class="st2">
		<path class="st3" d="M73.8,98.7h-2.2l-0.2-1.8h-2.5l-0.8,1.8H66l4.1-8.1h2.2L73.8,98.7z M71.2,95.8l-0.4-3.1l-1.4,3.1H71.2z"/>
	</g>
	<g class="st2">
		<path class="st3" d="M82.4,98.7h-2.3L79.3,97c-0.2-0.5-0.4-0.9-0.6-1.2s-0.3-0.4-0.5-0.5s-0.3-0.1-0.5-0.1h-0.3l-0.5,3.4h-2.1
			l1.2-8.1h3.2c1.2,0,1.9,0.3,2.3,0.8s0.6,1.1,0.6,1.6c0,0.6-0.2,1.1-0.5,1.5s-0.8,0.6-1.4,0.6c0.3,0.2,0.6,0.4,0.7,0.6
			s0.4,0.6,0.6,1.1L82.4,98.7z M79.9,92.9c0-0.3-0.1-0.6-0.3-0.8s-0.7-0.3-1.4-0.3h-0.3l-0.3,2.3h0.8c0.6,0,1-0.1,1.2-0.4
			S79.9,93.2,79.9,92.9z"/>
	</g>
	<g class="st2">
		<path class="st3" d="M91.1,96.3c0,0.8-0.3,1.4-0.9,1.9c-0.2,0.1-0.4,0.2-0.6,0.3s-0.5,0.1-0.8,0.2s-0.6,0-1,0h-4.1l1.2-8.1h2.9
			c0.5,0,0.9,0,1.3,0.1s0.8,0.3,1.1,0.6s0.5,0.7,0.5,1.2c0,0.4-0.1,0.8-0.3,1.1s-0.5,0.5-0.8,0.8C90.6,94.8,91.1,95.4,91.1,96.3z
			 M88.9,96.2c0-0.3-0.1-0.5-0.2-0.7s-0.3-0.3-0.6-0.4s-0.6-0.1-1-0.1h-0.8L86,97.5h1.4C88.4,97.5,88.9,97.1,88.9,96.2z M88.7,92.8
			c0-0.3-0.1-0.6-0.3-0.8s-0.6-0.3-1-0.3h-0.5l-0.3,2.2h0.8C88.3,93.9,88.7,93.5,88.7,92.8z"/>
	</g>
	<g class="st2">
		<path class="st3" d="M100.9,94.2c0,0.7-0.1,1.3-0.3,1.8s-0.5,1.1-0.9,1.5s-0.9,0.7-1.5,1s-1.2,0.3-1.9,0.3c-0.6,0-1.3-0.1-1.9-0.4
			s-1.1-0.6-1.5-1.2s-0.6-1.3-0.6-2.1c0-0.7,0.1-1.4,0.4-2s0.6-1.1,1.1-1.5s1-0.7,1.5-0.9s1.2-0.3,1.8-0.3c0.8,0,1.4,0.1,2,0.4
			s1.1,0.7,1.4,1.3S100.9,93.4,100.9,94.2z M98.7,94.3c0-0.4-0.1-0.8-0.2-1.1s-0.4-0.5-0.7-0.7s-0.6-0.3-1-0.3c-0.5,0-1,0.1-1.4,0.4
			s-0.7,0.6-0.9,1s-0.3,0.8-0.3,1.3c0,0.5,0.2,1,0.5,1.4s0.8,0.6,1.4,0.6c0.4,0,0.7-0.1,1-0.2s0.6-0.3,0.8-0.6s0.4-0.5,0.5-0.9
			S98.7,94.7,98.7,94.3z"/>
	</g>
	<g class="st2">
		<path class="st3" d="M110.4,90.6l-3.6,4.1l2.4,4h-2.3l-1.5-2.4l-2.2,2.4h-2.5l3.7-4.1l-2.4-4h2.3l1.5,2.4l2.2-2.4H110.4z"/>
	</g>
</g>
<g id="Calque_2">
	
		<path id="path25" inkscape:connector-curvature="0" sodipodi:nodetypes="ccssszsssccccccczsaaaasccccsaassscsasccsacsccccssssssccsccccccccccc" class="st1" d="
		M96.3,29.9c0.3,0,0.7,0,1,0.1c0.2,0.1,0.3,0.1,0.5,0.3s0.3,0.4,0.3,0.6c0.1,0.2,0.1,0.4,0.1,0.7c0,0.2,0,0.6-0.1,0.8
		c-0.1,0.2-0.1,0.3-0.3,0.5c-0.2,0.2-0.4,0.3-0.6,0.4c-0.2,0.1-0.5,0.2-0.9,0.2l-1.3,0v2h-1.2v-5.6H96.3z M95.9,32.5
		c0,0,0.3,0,0.4,0c0.1,0,0.2-0.1,0.3-0.1c0.1-0.1,0.2-0.2,0.3-0.3c0.1-0.1,0-0.3,0-0.4c0-0.2,0-0.3,0-0.5c0-0.1-0.1-0.2-0.2-0.3
		c-0.1-0.1-0.3-0.1-0.4-0.1h-1.4v1.7H95.9z M96.5,43.2c0.3,0,0.5,0,0.7,0.1c0.2,0.1,0.4,0.2,0.5,0.3s0.3,0.3,0.3,0.5
		c0.1,0.2,0.1,0.4,0.1,0.6c0,0.3,0,0.5-0.2,0.8c-0.1,0.2-0.4,0.5-0.7,0.6c0.3,0.1,0.3,0.1,0.5,0.3c0.1,0.1,0.2,0.3,0.3,0.4
		c0.1,0.2,0.1,0.5,0.2,0.6c0,0.5,0.1,0.9,0.1,1.4H97v-0.7c0-0.2,0-0.5-0.1-0.7c-0.1-0.2-0.1-0.5-0.3-0.6c-0.1-0.1-0.4-0.2-0.7-0.2
		h-1.2v2.2h-1.2v-5.6H96.5z M96.1,45.7c0.3,0,0.5-0.1,0.6-0.2c0.1-0.1,0.2-0.3,0.2-0.6s-0.1-0.5-0.2-0.6s-0.4-0.2-0.6-0.2h-1.3v1.6
		H96.1z M94.7,56.6l2.3,3.8v-3.8h1.2v5.6H97l-2.3-3.7v3.7h-1.2v-5.6H94.7z"/>
	<path id="path27" inkscape:connector-curvature="0" sodipodi:nodetypes="ssscssscsccscssssccsscccc" class="st0" d="M95.9,70
		c0.4,0,0.7,0.1,1,0.2s0.6,0.3,0.8,0.5c0.2,0.2,0.4,0.5,0.5,0.9c0.1,0.3,0.2,0.7,0.2,1.2c0,0.4-0.1,0.8-0.2,1.1
		c-0.1,0.3-0.3,0.6-0.5,0.9s-0.5,0.4-0.8,0.6c-0.3,0.1-0.7,0.2-1.1,0.2h-2.4V70H95.9z M95.8,74.6c0.2,0,0.3,0,0.5-0.1
		s0.3-0.2,0.4-0.3c0.1-0.1,0.2-0.3,0.3-0.5c0.1-0.2,0.1-0.5,0.1-0.8s0-0.5-0.1-0.8c-0.1-0.2-0.1-0.4-0.3-0.6
		c-0.1-0.2-0.3-0.3-0.5-0.4C96,71,95.7,71,95.4,71h-0.9v3.6L95.8,74.6z"/>
</g>
</svg>
