<svg xmlns="http://www.w3.org/2000/svg" viewBox="0 0 113.4 113.4"><style>.st0{fill:#f02429}.st1{fill:#494c53}.st2,.st3{fill:none;stroke:#c9c9c9;stroke-miterlimit:10}.st3{stroke:#dbdbdb}.st4{fill:#fff}.st5{fill:url(#SVGID_1_)}.st6{fill:url(#SVGID_2_)}.st7{fill:url(#SVGID_3_)}.st8{fill:url(#SVGID_4_)}.st9{fill:url(#SVGID_5_)}.st10{fill:url(#SVGID_6_)}.st11{fill:url(#SVGID_7_)}.st12{fill:none;stroke:#231f20;stroke-width:.48;stroke-miterlimit:10}.st13,.st14,.st15{stroke:#4c4c4c;stroke-miterlimit:10}.st13{fill-rule:evenodd;clip-rule:evenodd;fill:#494c53}.st14{fill:#d1d3d4}.st15,.st16{fill:none}.st16{stroke-width:1.071;stroke-miterlimit:3.864}.st16,.st17,.st18{stroke:#4c4c4c}.st17{stroke-width:.765;fill:none;stroke-miterlimit:3.864}.st18{fill:#494c53;stroke-miterlimit:10}.st19{fill:none;stroke-width:.551;stroke-miterlimit:3.864}.st19,.st20,.st21{stroke:#4c4c4c}.st20{stroke-width:1.531;fill:none;stroke-miterlimit:3.864}.st21{fill:#00b9f2;stroke-miterlimit:10}.st22,.st23{fill:none;stroke:#4c4c4c}.st22{stroke-linecap:round;stroke-linejoin:round;stroke-width:.551;stroke-miterlimit:3.864}.st23{stroke-width:.48;stroke-miterlimit:10}</style><g id="Calque_2"><path class="st13" d="M47.7 37.3h20.6l7.8 7.9h10v6.5h11.7v-6.5h5.3v31.6h-5.6v-5H87.1l-10.9 11-9.5-.1 1 2.5 1.8.9v1.1l8.5.1 10.9-10.9h4.2v5h14.5V40.8H93.4v6.5h-2.8v-6.5H78l-7.8-7.9H53v-3.3h15.4c1 0 1.8-.5 1.8-1.1V25c0-.6-.8-1.1-1.8-1.1h-36c-1 0-1.8.5-1.8 1.1v3.3c0 .6.8 1.1 1.8 1.1h15.4v3.3H30.6l-6 10.5H13.3v14.3h-4V42.2c0-1-.5-1.8-1.1-1.8H4.8c-.6 0-1.1.8-1.1 1.8v36c0 1 .5 1.8 1.1 1.8h3.3c.6 0 1.1-.8 1.1-1.8V62.8h4v20.6l2.3-2 2.1-1.5V47.7H27l6-10.5h14.7v.1z"/><path class="st0" d="M28.8 51.1h14.3l-.6 2.9H32.4l-.7 3.2h9.7l-.7 2.8H31l-.8 3.5h10.3l-.5 3H25.5l3.3-15.4zm28.5 5.8c.1-2.2-1.5-3.3-3.7-3.3-4 0-5.5 3.1-5.9 5.2-.5 2.1-.3 5.2 3.7 5.2 2 0 4.2-1 5.1-3.4H61c-1.5 4.5-5.5 6.3-10.4 6.3-5.6 0-8.6-2.4-7.4-8.1s5.2-8.1 10.8-8.1c3.7 0 8.2.9 7.7 6.2h-4.4zm7.6-5.8h4.2l-1.9 8.8c-.3 1.5-.8 4 3 4s4.4-2.5 4.8-4l1.9-8.8H81L78.9 61c-.4 1.7-1.5 5.9-9.3 5.9s-7.2-4.2-6.8-5.9l2.1-9.9z"/><path class="st14" d="M11.1 87.7l-1.3.9s0 .8.2.9c.1.1 1.2.4 1.2.4h.6l-.7-2.2"/><path class="st15" d="M69.8 86.8v-.7l-2.4-.6-.1-2.2s-.6-1-1.5-.2c-.2.2-.4-1.8-.4-1.8s-.4-.9-1.3-1.1c-.9-.2-13.2-2.8-13.2-2.8s-1.3.4-1.6.8c-.3.3-1 .9-1 .9l-6.6-1.4-1.7-2c.3-.6-8.5-2-8.5-2s-1.6-.4-2.5.2c-.9.7-12 6.6-12 6.6-1.5-.2-2.9 2.2-2.9 2.2s2.4-.9 3-1.1c1.3.3 33.1 7.2 33.1 7.2s1 .4.8.7c-.1.2-1.9 1.8-1.9 1.8l.5.4 2.5 7.7.3 1.5.8.1s1.7 1.7 3.3-.8c.2-.1.2.1.4 0 .3.1 12.9-13.4 12.9-13.4"/><path class="st16" d="M32.5 91.2l-1.3-.2m2.9.6l-1.3-.3m3 .7l-1.3-.3m3 .7l-1.3-.3m2.9.7l-1.3-.3m2.9.6l-1.3-.3m3 .7l-1.3-.3m3.2.8l-1.3-.2m-5.3-2.1l-1.3-.3m2.9.6l-1.3-.2m3 .6l-1.3-.3m2.9.7l-1.3-.3m3 .7l-1.3-.3"/><path class="st17" d="M18 86.3l-.9-.2m2.2.4l-.9-.2m2.2.5l-.9-.2"/><path class="st18" d="M41.8 77.7c0-.6 1.1-1.1 2.4-1.1 1.3 0 2.4.5 2.4 1.1 0 .6-1.1 1.1-2.4 1.1-1.3 0-2.4-.5-2.4-1.1"/><path class="st18" d="M46.6 78h-4.8l.1 1.7s.4.5 1.5.8c.8.2 2.4-.1 2.4-.1s1-.7 1-1c-.2-.4-.2-1.4-.2-1.4"/><path class="st15" d="M50.7 92.6s1.6 5.9 1.5 6.7c-.1.3-5-.9-5-.9s-.6.4-1 .3l-4.4-1.1-10-2.6-4.3-1s-.8-.5-.9-1.4c-.1-.9-.5-.7-1.1-.3-.5.4-1.2 1.2-2 1-.9-.2-5.5-1.4-5.5-1.4l-5.1-1.3s-1.3-.4-1.4-.8c-.1-.4-.2-2.7-.2-2.7v-1.8s.3-.9.8-1.1c.5-.2 3.2-2 3.2-2s.8-.7 1.4-.6c.6.1 3.3.6 3.3.6l4.2 1 24.6 5.4s3.1 0 1.8 1.3c-1.2 1.3-1.6 1.5-1.6 1.5l1.5.3.2.9"/><path class="st19" d="M16.6 82.1l-1.4 1m2.3-.8l-1.4 1m2.2-.6l-1.3.9m5.7-.2l-1.4 1m2.3-.9l-1.4 1m2.2-.5l-1.2.9m13.1 1.3l-1.4 1m2.3-.9l-1.4 1m2.1-.5l-1.2.9m17 8v4.2c0 .3.5.5 1.2.5.6 0 1.1-.4 1.1-.4v-4.2m-2.3-.1c0-.3.5-.5 1.2-.5.6 0 1.2.2 1.2.5s-.5.5-1.2.5-1.2-.2-1.2-.5z"/><path class="st20" d="M32.8 89.8l-1.3-.3m2.9.7l-1.3-.3m3 .6l-1.3-.3m3 .7l-1.3-.3m2.9.7l-1.3-.3m2.9.7l-1.3-.3m3 .7l-1.3-.3m2.9.6l-1.3-.2"/><path class="st17" d="M22.5 87.5l-.9-.2m2.3.5l-.9-.2m2.2.4l-.9-.2m-7.2-.4l-.9-.2m2.3.5l-.9-.2m2.2.4l-.9-.2"/><path class="st16" d="M22.7 88.3l-.9-.2m2.3.4l-.9-.2m2.2.5l-.9-.2"/><path class="st17" d="M22.3 88.9l-.9-.2m2.3.4l-.9-.1m2.2.4l-.9-.2"/><path class="st19" d="M17.8 87l-.9-.2m2.3.4l-.9-.2m2.2.5l-.9-.2"/><path class="st16" d="M33 91l-1.3-.3m3 .7l-1.3-.3m3 .7l-1.3-.3m2.9.7l-1.3-.3m2.9.7l-1.3-.3m3 .6l-1.3-.2m2.9.6l-1.3-.3m3 .7l-1.3-.3"/><path class="st17" d="M12.7 90.8c-.2 1.2 1.1 1.4 1.1 1.4l37.4 9.2.6-.3 4.1.1.6-.8h.5l12.8-13.6s.1-.7-.3-.8c-.4-.1-2.1-.5-2.1-.5"/><path class="st19" d="M53.5 90.2s.9.6 1.1 1.9c.2 1.3.6 2.9.6 2.9m-2.7-3.8s.5-.2.6 1.1c.2 1.3.6 3.1.6 3.1m-1.5 4l-1.6-7m18.8-6.3L56.6 99.7c-.4.5-.9.9-1.3.9-.9.2-2.8-.3-3.1-.4"/><path class="st17" d="M56.3 96.9l10-10.2c.1-1.1-.1-2.7-.6-4.5-.6-1.9-1.1-1.8-1.6-2-.4-.1-13-2.7-13-2.7s-.8-.3-1.5.4-2.4 2.3-2.4 2.3-.8 1.2-3.2.8l-4.5-.9s-1.6-.5-1-2.2l1.6-2"/><path class="st19" d="M64.4 80.8s.4.5-.5 1.1c-.9.7-7.5 6.1-7.5 6.1"/><path class="st17" d="M41.7 77.8s-1.6-2.4-2.5-2.6c-1-.1-7.6-1.4-7.6-1.4s-1.7-.3-2.8.3c-1.5.8-11.8 6.5-11.8 6.5m49.1 3.1c.1 0 .3.1.4.1.5 0 .8-.2.8-.4s-.4-.4-.8-.4c-.3 0-.6.1-.7.2m.4 3.6h.3c.5 0 .8-.3.8-.3v-3.1"/><path class="st19" d="M39.5 78.6l2.2-.8"/><path class="st17" d="M46.6 78.8l1.9.4"/><path class="st19" d="M9.7 88.8s-.5.9.2 1.2l1.2.3m-.2-2.3s-1.8.7-.8 1.1l.8.2m5.9-8.6s-1.1-.1-2.3 1.4l-.5 1m41.6 5.6l-38-8.4m38.8 8.4s.7-.7-1.7-1.1l-35.9-7.9m34.8 10.7l1.3-.8s.3.1 1.3-.5m-45-.4l.1-3.3c.1-.8 1-1.3 1-1.3s2.8-1.6 3.4-2.1c.6-.5 2.1-.2 2.1-.2s31.1 6.9 32.4 7.1c1.3.2.4 1 .4 1l-1.8 1.6 1.6.2 2-1.1"/><path class="st17" d="M41.8 77.9v1.6c0 .6 1.1 1.1 2.4 1.1 1.3 0 2.4-.5 2.4-1.1v-1.6m-4.8-.2c0-.6 1.1-1.1 2.4-1.1 1.3 0 2.4.5 2.4 1.1 0 .6-1.1 1.1-2.4 1.1-1.3 0-2.4-.5-2.4-1.1zm11.5 23.5c0 .3.6.6 1.4.6.8 0 1.4-.5 1.4-.9"/><path class="st19" d="M19.7 85.2c0-.2.2-.4.5-.4s.5.2.5.4-.2.4-.5.4-.5-.2-.5-.4zm13.4 2.9c0-.3.3-.5.6-.5s.6.2.6.5-.3.5-.6.5-.6-.3-.6-.5zm8.1 1.8c0-.3.3-.5.6-.5.4 0 .6.2.6.5s-.3.5-.6.5c-.3-.1-.6-.3-.6-.5zm2.9-1.9l-1.4 1m2.3-.9l-1.4 1m2.2-.6l-1.2.9m-18.1-3s-1.6-.9-3-1.1l-8.9-1.9m10.7 7.1l-8.9-2.1s-1.1-.2-1.1-1.2V85m10.4 6.9l-10.4-2.5s-1.1-.2-1.1-1.2v-3.5m-3 3.7s.1.6.1 1.1c-.1.5.9 1 .9 1s9.8 2.6 11 2.8c1.2.2 1.3-.1 1.3-.1s1-.4 1.5-1.5c-.1-1 0-2.8 0-2.8s.4-1.8-1.6-2.4c-2-.6-10.8-2.1-10.8-2.1s-1.3-.3-1.4.8c-.1 1 .1 3.5.1 3.5s.1 1.1.6 1.4m33.9 5.4l-16.2-4s-1.1-.2-1.1-1.2v-2.2m17.2 9.2l-17.4-4.2s-1.1-.2-1.1-1.2l.2-4.1m18.5 10.7v-4.6s.4-1.8-1.6-2.4c-2-.6-16.9-3.7-16.9-3.7s-1.5-.7-1.7.7l-.2 3.5m0 0s.1.6.1 1.1c-.1.5.9 1 .9 1s17.1 4.3 18.3 4.6c1.2.2 1.3-.1 1.3-.1l1.5-1.5v-4.6s.4-1.8-1.6-2.4c-2-.6-17-3.6-17-3.6s-1.9-.4-2.5.7l-.5.6m24.1 9.7s.6 1.7-.6 1.6l-3.3-.7m-5.4-19.9c0 .6 1.1 1.1 2.4 1.1 1.3 0 2.4-.5 2.4-1.1"/><path class="st22" d="M26.9 75.2l2.6-1.3"/></g></svg>